Coordinates
version=1
nRows=19
nColumns=36
inDegrees=yes

Units are S.I. units (second, meters, Newtons, ...)
If the header above contains a line with 'inDegrees', this indicates whether rotational values are in degrees (yes) or radians (no).

endheader
time	pelvis_tilt	pelvis_list	pelvis_rotation	pelvis_tx	pelvis_ty	pelvis_tz	hip_flexion_r	hip_adduction_r	hip_rotation_r	knee_angle_r	knee_angle_r_beta	ankle_angle_r	subtalar_angle_r	mtp_angle_r	hip_flexion_l	hip_adduction_l	hip_rotation_l	knee_angle_l	knee_angle_l_beta	ankle_angle_l	subtalar_angle_l	mtp_angle_l	lumbar_extension	lumbar_bending	lumbar_rotation	arm_flex_r	arm_add_r	arm_rot_r	elbow_flex_r	pro_sup_r	arm_flex_l	arm_add_l	arm_rot_l	elbow_flex_l	pro_sup_l
      0.00000000	     -0.29355556	     -1.63899810	      4.76013926	     -0.07500023	      0.93476965	     -0.26839314	     25.51967230	     -2.13936011	     -4.30656764	      3.02659896	      0.05282412	      2.29718833	      0.15896888	     -4.96576420	    -16.26182899	     -4.18105246	     -7.93939037	      7.59137911	      0.13249456	     21.55250653	     16.19267844	     -4.96576420	     -5.80941150	     -5.53990051	    -13.28587101	     -7.29047175	     -6.70781684	     -7.75384991	     38.94479792	    100.85502048	     18.39058386	    -11.60638378	      0.97273120	     45.65812552	    102.75080239
      0.01000000	     -0.17599033	     -2.14609474	      5.04523880	     -0.06182612	      0.93395031	     -0.26705198	     25.13020393	     -1.63606747	     -4.20702937	      3.88926726	      0.06788052	      1.50482282	     -0.09135445	     -4.97903329	    -16.70192293	     -5.04598862	     -7.72500541	      8.46501655	      0.14774241	     21.11949560	     15.99006880	     -4.97903329	     -5.89017536	     -4.54989376	    -13.51922381	     -7.37634278	     -6.87431864	     -7.93739898	     38.64552142	    100.85956502	     18.21060434	    -11.50643233	      1.00128750	     45.60523423	    102.80493568
      0.02000000	      0.00754355	     -2.83146874	      5.53892939	     -0.04847362	      0.93337323	     -0.26579325	     24.50820259	     -0.95693989	     -4.53796591	      4.32438211	      0.07547471	     -0.97211226	     -1.92910143	     -5.03586986	    -17.01692847	     -6.21183499	     -7.63653579	      9.62927954	      0.16806263	     20.67774180	     15.21560477	     -5.03586986	     -5.95333618	     -3.39046958	    -13.98805923	     -7.31089688	     -6.95299676	     -8.36494888	     38.11004496	    100.95120493	     17.89692505	    -11.41490356	      0.90490215	     45.55286557	    103.03965074
      0.03000000	      0.16652682	     -3.46465327	      5.88006202	     -0.03512266	      0.93284319	     -0.26419353	     24.02274653	     -0.24871940	     -4.44255607	      4.99802642	      0.08723202	     -2.42915386	     -3.20413128	     -5.07477120	    -17.29479186	     -7.28010373	     -7.50139401	     10.82138869	      0.18886886	     19.99045287	     14.57046931	     -5.07477120	     -6.03350367	     -2.29072977	    -14.22558480	     -7.31676147	     -7.07725146	     -8.57183900	     37.75571887	    101.01134989	     17.59439037	    -11.31701979	      0.91869464	     45.51357977	    103.20578173
      0.04000000	      0.28062123	     -4.07791261	      6.15547350	     -0.02175974	      0.93249035	     -0.26229193	     23.50005227	      0.56653499	     -3.55090191	      5.45376690	      0.09518619	     -4.89460720	     -6.05447670	     -5.19853825	    -17.48730251	     -8.25314744	     -6.82963770	     12.06276413	      0.21053495	     19.05434590	     13.27412965	     -5.19853825	     -6.05214396	     -1.23998846	    -14.43046955	     -7.23547049	     -7.14758159	     -8.77660362	     37.37357065	    101.24991222	     17.20440814	    -11.25801111	      0.84636605	     45.51257948	    103.68731604
      0.05000000	      0.50925430	     -4.79317833	      6.48936465	     -0.00817899	      0.93249129	     -0.26032101	     23.00910619	      1.42370174	     -3.83322643	      6.26042309	      0.10926500	     -5.84187080	     -6.59471047	     -5.23131887	    -17.55818714	     -9.44747293	     -6.59322051	     13.72238155	      0.23950074	     18.07008721	     12.47450914	     -5.23131887	     -6.18379575	     -0.06861308	    -14.58432416	     -7.17365404	     -7.21635020	     -8.91654801	     37.09294834	    101.27590888	     16.82917539	    -11.19409800	      0.99321224	     45.42919932	    103.80601783
      0.06000000	      0.79256798	     -5.47567704	      6.77650316	      0.00539140	      0.93277580	     -0.25815112	     22.47684359	      2.30857562	     -4.00489939	      7.10400628	      0.12398830	     -6.56660401	     -7.24843895	     -5.25288364	    -17.49873347	    -10.58988780	     -6.16992965	     15.70659901	      0.27413187	     16.90083577	     11.51826932	     -5.25288364	     -6.42047366	      1.07170272	    -14.62423817	     -7.06279318	     -7.25746192	     -9.03289125	     36.85525447	    101.28165839	     16.44154429	    -11.13206878	      1.15743268	     45.37310217	    103.88631510
      0.07000000	      0.96668301	     -6.19285159	      7.08113185	      0.01898962	      0.93311584	     -0.25585790	     22.07076181	      3.24775130	     -4.18418958	      7.95759189	      0.13888618	     -7.59551732	     -8.50263510	     -5.29028154	    -17.08062019	    -11.71893675	     -5.34045229	     18.03632502	      0.31479326	     15.32198426	      9.58184874	     -5.29028154	     -6.50008317	      2.21697825	    -14.74243508	     -6.90279776	     -7.23667343	     -9.19900848	     36.63753543	    101.30117599	     15.89662208	    -11.16459872	      1.43338909	     45.29137250	    104.01533150
      0.08000000	      1.08282924	     -6.77325246	      7.30756390	      0.03236042	      0.93352567	     -0.25346763	     21.77235359	      4.09768962	     -3.96212757	      8.94276599	      0.15608071	     -8.47218558	    -10.13189112	     -5.34995579	    -16.42140537	    -12.55507447	     -3.95695504	     20.61113967	      0.35973225	     13.21572510	      6.81492694	     -5.34995579	     -6.54750303	      3.20335829	    -14.73118937	     -6.67917938	     -7.19147607	     -9.36264914	     36.47798535	    101.34291281	     15.36272620	    -11.19583469	      1.80179609	     45.18449368	    104.18696144
      0.09000000	      1.34696729	     -7.28173802	      7.48433730	      0.04556554	      0.93420961	     -0.25103549	     21.30662418	      4.92214585	     -3.70375587	      9.97813640	      0.17415133	     -8.76210224	    -11.53252014	     -5.44389811	    -15.65622115	    -13.29833508	     -2.72497954	     23.58845424	      0.41169619	     10.71840320	      4.05456447	     -5.44389811	     -6.84111864	      4.10686618	    -14.52691841	     -6.42261638	     -7.13740682	     -9.50082170	     36.35626551	    101.40554277	     15.00600375	    -11.19491735	      2.20207393	     45.03944059	    104.37634877
      0.10000000	      1.64249928	     -7.95776817	      7.63291738	      0.05879201	      0.93487676	     -0.24848053	     20.81756420	      5.93305680	     -3.79521450	     11.01154496	      0.19218772	     -8.34065772	    -12.28650974	     -5.47422193	    -14.59615390	    -14.36302750	     -2.16624089	     27.06597177	      0.47239032	      8.52207938	      2.62783894	     -5.47422193	     -7.15349659	      5.20517442	    -14.27146411	     -6.14538506	     -7.12642522	     -9.57307345	     36.35944261	    101.41704598	     14.53786172	    -11.17628459	      2.53763970	     44.95741541	    104.44194634
      0.11000000	      1.79187383	     -8.55719945	      7.72170534	      0.07161472	      0.93537385	     -0.24595611	     20.50145419	      6.85242747	     -3.81049371	     12.09139644	      0.21103468	     -7.73489154	    -13.13663849	     -5.50716120	    -13.10540517	    -15.21917357	     -1.31080562	     30.85220433	      0.53847255	      5.68919794	      0.47048192	     -5.50716120	     -7.36849747	      6.20341429	    -13.93671694	     -5.79424582	     -7.07149610	     -9.65542682	     36.41096568	    101.42942082	     14.10660268	    -11.13396617	      3.00957919	     44.84106915	    104.51200582
      0.12000000	      1.83902779	     -8.96181089	      7.68358151	      0.08409279	      0.93578896	     -0.24350124	     20.30461328	      7.56730510	     -3.72029635	     13.25949862	      0.23142191	     -7.06451625	    -13.85544867	     -5.56309555	    -11.39341653	    -15.63262387	     -0.12698174	     34.67859711	      0.60525570	      1.95790888	     -2.82319474	     -5.56309555	     -7.50141674	      6.95028875	    -13.46806284	     -5.43092409	     -7.03301117	     -9.77792280	     36.49983984	    101.45182276	     13.74862689	    -11.15343056	      3.67120632	     44.54421246	    104.58752971
      0.13000000	      1.97391942	     -9.43236835	      7.55598372	      0.09637405	      0.93628047	     -0.24102068	     19.92583153	      8.38698907	     -3.73261393	     14.22319030	      0.24824150	     -6.03979673	    -14.27125107	     -5.63366485	     -9.67110092	    -16.11426265	      0.76994761	     38.55594036	      0.67292811	     -1.85805915	     -5.65145834	     -5.63366485	     -7.82737519	      7.79053578	    -12.77296842	     -4.97069042	     -7.01860333	     -9.84636953	     36.64678654	    101.49008318	     13.49996761	    -11.07582234	      4.35543203	     44.22309749	    104.64787480
      0.14000000	      2.17054910	    -10.05655131	      7.40761130	      0.10854873	      0.93672937	     -0.23853786	     19.34978592	      9.40307261	     -3.70796900	     14.88524772	      0.25979658	     -4.91025716	    -14.67433239	     -5.66168731	     -7.86302803	    -16.87930038	      1.30656987	     42.55949493	      0.74280331	     -4.77075657	     -6.87295367	     -5.66168731	     -8.18881136	      8.79729216	    -12.06256455	     -4.44776037	     -7.06427689	     -9.78050364	     36.86372521	    101.52397173	     13.15744742	    -10.92338482	      4.78633613	     44.04629026	    104.68162145
      0.15000000	      2.19000366	    -10.35609065	      7.14471959	      0.12031279	      0.93710627	     -0.23632130	     18.98934710	      9.99276157	     -3.81632995	     15.70711685	      0.27414090	     -3.63608979	    -14.47783849	     -5.74824451	     -5.89959510	    -16.96362095	      2.21932635	     46.32524620	      0.80852807	     -8.58657972	     -9.93113304	     -5.74824451	     -8.44082564	      9.41326873	    -11.17933514	     -3.93964534	     -7.12418986	     -9.74416091	     37.07556575	    101.59349427	     12.99248633	    -10.83863174	      5.69580764	     43.48184339	    104.72431903
      0.16000000	      2.26624928	    -10.82311269	      6.87770051	      0.13201814	      0.93750151	     -0.23404992	     18.40013090	     10.81696798	     -3.76148128	     16.13468165	      0.28160332	     -2.55776493	    -14.62455109	     -5.77791033	     -3.92002034	    -17.35479781	      2.85282696	     50.10188218	      0.87444281	    -10.43849107	    -10.76898669	     -5.77791033	     -8.74286256	     10.19619831	    -10.32070141	     -3.33777582	     -7.21735402	     -9.56963591	     37.35011911	    101.64491366	     12.66979797	    -10.64782913	      6.11965636	     43.20395436	    104.74189759
      0.17000000	      2.30906553	    -11.14137667	      6.58356783	      0.14338790	      0.93797595	     -0.23201776	     17.81865722	     11.44737401	     -3.70996644	     16.53560215	      0.28860070	     -1.50398004	    -14.61204602	     -5.80489426	     -1.92485826	    -17.45020123	      3.55672342	     53.67597112	      0.93682243	    -11.64415310	    -11.74404560	     -5.80489426	     -9.05401209	     10.79360864	     -9.39466431	     -2.65996469	     -7.32273972	     -9.31738483	     37.55985412	    101.69561004	     12.43888160	    -10.42413035	      6.61628621	     42.82236312	    104.75842059
      0.18000000	      2.26218087	    -11.28611942	      6.26294087	      0.15455077	      0.93854163	     -0.23013196	     17.34201791	     11.84331427	     -3.73125579	     17.02395252	      0.29712402	     -0.38977787	    -14.19535433	     -5.85188150	      0.13616575	    -17.22794068	      4.29584789	     57.00744798	      0.99496767	    -12.10090799	    -12.63842906	     -5.85188150	     -9.29163078	     11.18272117	     -8.43567327	     -1.96571092	     -7.46803040	     -8.94776394	     37.73113355	    101.74687959	     12.26723553	    -10.25098148	      7.36132648	     42.17363027	    104.76999601
